<?xml version="1.0" encoding="UTF-8" standalone="no"?>
<!-- Created with Inkscape (http://www.inkscape.org/) -->

<svg
   width="128.01128mm"
   height="228.84407mm"
   viewBox="0 0 128.01128 228.84407"
   version="1.1"
   id="svg1"
   xml:space="preserve"
   xmlns="http://www.w3.org/2000/svg"
   xmlns:svg="http://www.w3.org/2000/svg"><defs
     id="defs1" /><g
     id="layer1"
     transform="translate(25.016847,-40.888684)"><path
       style="fill:none;stroke:#e10000;stroke-width:1;stroke-dasharray:none;stroke-opacity:1"
       d="m 11.496932,182.59186 c 1.261208,2.08022 1.778727,6.56591 1.037711,10.42225 -0.250057,1.30133 -0.64343,2.531 -1.199902,3.57239 -0.627665,1.17461 -1.037299,2.9139 -0.423839,4.10365 1.406205,2.7272 2.957002,4.88174 4.423385,6.19536 1.048248,0.93905 2.228064,2.48099 2.089537,3.89203 -0.36392,3.70692 -1.503403,7.28627 0.08634,11.44239 0.781445,1.5447 3.386037,2.3167 7.739374,2.9524 3.18845,0.46559 7.60971,2.64319 9.148817,5.46759 4.543717,8.33811 0.596882,14.49916 -2.950403,20.76266 -1.586914,2.80204 -4.74804,7.23229 -4.984436,10.34788 -0.185564,2.44566 0.446664,4.90703 1.71193,5.67752 5.519183,3.36091 12.371249,3.81674 13.98603,-14.80043 0.491866,-5.67083 2.240107,-14.5572 17.107221,-12.62858 2.542104,0.32977 6.324167,-0.26221 8.550601,-1.53449 0.256915,-0.14682 0.508697,-0.28996 0.755615,-0.43009 12.302512,-6.98196 12.531158,-6.4958 33.939155,-80.60208 h 0.15918 C 75.004144,151.78538 45.904817,141.91929 24.555585,154.916 c -2.696175,1.64134 -5.959851,5.52197 -7.355789,8.35588 -3.579526,7.26682 -5.610881,13.85964 -6.676375,16.88051 -0.300683,0.8525 0.330227,1.37845 0.973511,2.43947 z"
       id="path24" /><path
       style="fill:none;stroke:#e10000;stroke-width:1;stroke-dasharray:none;stroke-opacity:1"
       d="M 102.20634,157.23051 C 78.52142,80.367615 16.615198,34.467668 -16.484899,42.24815 c -2.960933,0.695994 -6.828128,3.797377 -7.567607,6.732775 -2.391048,9.491388 5.022246,21.223768 10.035595,32.40759 6.3748502,9.894762 10.6811034,18.902665 10.576375,26.051765 -0.037312,2.54702 0.033229,6.45858 0.9860098,8.8332 3.27000025,8.14984 4.5746444,12.4994 7.4282687,19.37404 6.3675855,10.7077 18.5754405,12.85323 27.0581125,12.87099 4.54913,0.01 11.886208,-0.31156 16.427576,0.0372 15.819534,1.21482 31.020232,1.93458 53.749579,8.67725"
       id="path1" /><ellipse
       style="fill:none;stroke:#e10000;stroke-width:1;stroke-dasharray:none;stroke-opacity:1"
       id="path11"
       cx="-12.814259"
       cy="53.724373"
       rx="4.059175"
       ry="4.218358" /><ellipse
       style="fill:none;stroke:#e10000;stroke-width:1;stroke-dasharray:none;stroke-opacity:1"
       id="path12"
       cx="5.8101916"
       cy="51.814175"
       rx="2.9448915"
       ry="2.6265249" /><ellipse
       style="fill:none;stroke:#e10000;stroke-width:1;stroke-dasharray:none;stroke-opacity:1"
       id="path13"
       cx="-0.15918332"
       cy="58.897835"
       rx="2.5469332"
       ry="2.2285666" /><ellipse
       style="fill:none;stroke:#e10000;stroke-width:1;stroke-dasharray:none;stroke-opacity:1"
       id="path14"
       cx="-10.108141"
       cy="67.175362"
       rx="2.7857082"
       ry="2.7061167" /><ellipse
       style="fill:none;stroke:#e10000;stroke-width:1;stroke-dasharray:none;stroke-opacity:1"
       id="path15"
       cx="4.4571333"
       cy="70.677399"
       rx="3.5020332"
       ry="3.0244832" /><ellipse
       style="fill:none;stroke:#e10000;stroke-width:1;stroke-dasharray:none;stroke-opacity:1"
       id="path16"
       cx="-4.2979498"
       cy="76.646774"
       rx="2.7061167"
       ry="2.6265249" /><ellipse
       style="fill:none;stroke:#e10000;stroke-width:1;stroke-dasharray:none;stroke-opacity:1"
       id="path17"
       cx="-0.9551"
       cy="86.834511"
       rx="1.5918334"
       ry="1.8306084" /><ellipse
       style="fill:none;stroke:#e10000;stroke-width:1;stroke-dasharray:none;stroke-opacity:1"
       id="path18"
       cx="3.1040747"
       cy="100.12632"
       rx="1.9897916"
       ry="1.7510166" /><ellipse
       style="fill:none;stroke:#e10000;stroke-width:1;stroke-dasharray:none;stroke-opacity:1"
       id="path19"
       cx="6.0489664"
       cy="110.7916"
       rx="1.7510166"
       ry="2.0693831" /><ellipse
       style="fill:none;stroke:#e10000;stroke-width:1;stroke-dasharray:none;stroke-opacity:1"
       id="path20"
       cx="8.5958996"
       cy="119.30791"
       rx="1.5918334"
       ry="1.5122416" /><ellipse
       style="fill:none;stroke:#e10000;stroke-width:1;stroke-dasharray:none;stroke-opacity:1"
       id="path21"
       cx="11.142833"
       cy="129.17728"
       rx="1.5918334"
       ry="1.8306084" /><circle
       style="fill:none;stroke:#e10000;stroke-width:1;stroke-dasharray:none;stroke-opacity:1"
       id="path22"
       cx="41.467255"
       cy="90.654907"
       r="2.4673417" /><ellipse
       style="fill:none;stroke:#e10000;stroke-width:1;stroke-dasharray:none;stroke-opacity:1"
       id="path23"
       cx="51.416218"
       cy="85.003891"
       rx="2.7061167"
       ry="2.5469332" /><circle
       style="fill:none;stroke:#e10000;stroke-width:0.795096;stroke-dasharray:none;stroke-opacity:1"
       id="path25"
       cx="25.548923"
       cy="164.67516"
       r="1.4555101" /><ellipse
       style="fill:none;stroke:#e10000;stroke-width:1.1355;stroke-dasharray:none;stroke-opacity:1"
       id="path28"
       cx="24.195866"
       cy="201.12146"
       rx="3.4342856"
       ry="2.7112782" /><ellipse
       style="fill:none;stroke:#e10000;stroke-width:0.782205;stroke-dasharray:none;stroke-opacity:1"
       id="path28-2"
       cx="20.466291"
       cy="181.43167"
       rx="2.0986915"
       ry="2.1053736" /><ellipse
       style="fill:none;stroke:#e10000;stroke-width:1;stroke-dasharray:none;stroke-opacity:1"
       id="path29"
       cx="29.050959"
       cy="215.29544"
       rx="1.9897916"
       ry="1.5122416" /><ellipse
       style="fill:none;stroke:#e10000;stroke-width:1;stroke-dasharray:none;stroke-opacity:1"
       id="path30"
       cx="40.910114"
       cy="221.5036"
       rx="2.2285666"
       ry="1.193875" /><circle
       style="fill:none;stroke:#e10000;stroke-width:1.11666;stroke-dasharray:none;stroke-opacity:1"
       id="path31"
       cx="48.550915"
       cy="229.70154"
       r="2.0110531" /><ellipse
       style="fill:none;stroke:#e10000;stroke-width:0.827697;stroke-dasharray:none;stroke-opacity:1"
       id="path32"
       cx="63.912109"
       cy="231.93011"
       rx="0.96165961"
       ry="1.2004347" /><path
       style="fill:none;stroke:#e10000;stroke-width:1;stroke-dasharray:none;stroke-opacity:1"
       d="m 88.68449,155.41496 c -8.09884,0.26252 -17.096272,2.08261 -26.268846,4.20627 -3.133261,0.79464 -3.329709,1.72276 -3.33788,2.65945 1.000541,3.43384 3.194143,2.57265 5.237488,2.25239 0,0 25.027744,-7.33768 25.156218,-7.38133 2.959743,-1.00569 1.905588,-2.57602 -0.78698,-1.73678 z"
       id="path35" /><path
       style="fill:none;stroke:#e10000;stroke-width:1;stroke-dasharray:none;stroke-opacity:1"
       d="m 96.065819,171.72444 c -3.97397,10.1886 -7.590597,13.42626 -12.591678,35.16986 -2.244019,11.30799 -2.276204,12.05658 1.845331,0.2171 z"
       id="path38" /><path
       style="fill:none;stroke:#e10000;stroke-width:1;stroke-dasharray:none;stroke-opacity:1"
       d="m 96.98071,156.29255 c -0.883587,-1.34174 -4.008167,-2.95526 -7.455842,-4.48504 -5.637794,-2.50157 -14.676133,-6.76153 -20.195554,-9.52063 -12.805058,-6.40112 -19.339733,-8.57442 -29.481416,-9.46075 -10.690641,-0.93431 -22.279798,1.12373 -17.362831,8.54396 2.168127,3.27193 8.064369,6.01504 11.964485,6.5418 14.367743,1.94052 33.297322,-0.86624 62.529032,8.37007"
       id="path2"
       transform="matrix(0.95984703,0,0,0.95984703,-1.0045006,1.6524636)" /><path
       style="fill:none;stroke:#e10000;stroke-width:1;stroke-dasharray:none;stroke-opacity:1"
       d="m 96.98071,156.29255 c -3.820654,-4.73075 -8.100839,-13.73123 -32.005769,-39.4454 -1.507241,-1.62131 -3.950548,-4.25663 -5.596532,-5.73654 -0.484932,-0.43601 -0.952591,-0.83458 -1.40308,-1.19842 -3.996977,-3.22826 -12.979513,1.48805 -10.500754,5.68893 0.506217,0.85792 1.183251,1.79123 2.048891,2.82054 3.499145,4.16078 10.921029,8.95097 15.455764,11.95273 11.43909,7.57208 21.466022,17.33451 31.999354,25.90757"
       id="path3"
       transform="matrix(0.95984703,0,0,0.95984703,-0.36776728,-6.7842529)" /><path
       style="fill:none;stroke:#e10000;stroke-width:1;stroke-dasharray:none;stroke-opacity:1"
       d="m 96.98071,156.29255 c -2.400233,-4.24031 -9.370498,-18.506 -31.19137,-49.37884 -0.400346,-0.56642 -1.301712,-1.54359 -1.819936,-1.21535 -0.627379,0.39737 -1.291149,1.428 -1.766902,2.38741 -0.316002,0.63726 -0.759761,2.42505 -1.700947,3.82776 -0.07933,0.11822 3.042416,3.26767 6.786276,7.21504 12.768018,13.46206 20.795541,25.23893 29.690753,37.15339"
       id="path3-3"
       transform="matrix(0.95984703,0,0,0.95984703,-1.2950555,-11.776305)" /><path
       style="fill:none;stroke:#e10000;stroke-width:1;stroke-dasharray:none;stroke-opacity:1"
       d="m 91.689596,147.24458 c -5.599742,-6.59452 -15.929372,-15.36222 -34.245244,-27.79929 -3.052725,-2.0729 -8.534745,-3.92693 -12.217693,-4.15514 -16.892168,-1.04667 -20.91412,-0.76144 -26.790166,-1.2e-4 -1.830801,0.23721 -2.704525,1.80312 -1.952605,3.48925 l 3.891578,8.72657 c 24.016644,-7.45144 43.576621,9.573 71.31413,19.73873 z"
       id="path5" /><path
       style="fill:none;stroke:#e10000;stroke-width:1;stroke-dasharray:none;stroke-opacity:1"
       d="M 49.665199,113.17935 C 41.00487,101.18352 26.791516,101.9817 19.160225,101.76748 c -2.063392,-0.0579 -5.853385,-0.0804 -6.663375,1.75211 -0.460216,1.04119 -0.24714,2.3272 0.397,3.76997 l 2.546933,6.04897 c 8.46779,-2.40534 21.691777,-1.00572 34.224416,-0.15918 z"
       id="path6" /><path
       style="fill:none;stroke:#e10000;stroke-width:1;stroke-dasharray:none;stroke-opacity:1"
       d="M 39.159689,100.03592 38.227023,99.136564 C 34.873555,95.902863 28.537974,92.195326 24.065745,90.890842 13.929532,87.934258 15.156421,88.504153 12.58889,87.89647 11.167347,87.560019 8.9465538,87.773268 7.8761797,88.765202 c -0.9857479,0.913509 -1.461954,2.05348 -0.3945632,3.879495 l 4.1387665,6.367333 c 5.402623,-0.954693 16.079608,0.727798 26.829894,2.44693 1.446407,0.23131 1.76406,-0.40606 0.709412,-1.42304 z"
       id="path7" /><path
       style="fill:none;stroke:#e10000;stroke-width:1;stroke-dasharray:none;stroke-opacity:1"
       d="m 11.468078,75.891293 c -1.7108127,0.863951 -2.5598677,1.723982 -3.1905449,4.018738 -0.2097354,1.178289 -0.1158692,2.140824 0.164861,2.89055 0.7422754,1.98234 5.1464299,2.454794 7.3782619,3.157733 l 16.175192,5.094549 0.597308,-6.092537 A 2.7811514,2.7811514 59.398968 0 0 30.920824,82.132683 L 16.25041,75.845362 c -1.32629,-0.56841 -3.494462,-0.604435 -4.782332,0.04593 z"
       id="path8" /><path
       style="fill:none;stroke:#e10000;stroke-width:1;stroke-dasharray:none;stroke-opacity:1"
       d="m 34.383599,81.024314 3.502032,-4.138766 C 32.849085,72.485707 27.665214,68.049034 18.426023,62.598532 c -0.941722,-0.555553 -2.249391,-0.289817 -2.928107,0.567362 -0.926507,1.170125 -1.74031,2.446298 -1.39602,4.464748 0.336321,1.971728 2.779673,4.127891 4.556972,5.068814 z"
       id="path9" /><path
       style="fill:none;stroke:#e10000;stroke-width:1;stroke-dasharray:none;stroke-opacity:1"
       d="m 41.64113,73.994457 1.650547,-0.103159 A 0.18746839,0.18746839 107.56943 0 0 43.397235,73.55792 L 24.562975,58.460617 c -0.466492,-0.373935 -1.315326,-0.540835 -1.842094,-0.259483 -0.615129,0.328547 -0.899024,0.668135 -1.086605,1.010934 -0.282369,0.516021 -0.06997,1.23053 0.414716,1.565197 l 18.839262,13.008063 a 1.1939628,1.1939628 15.523903 0 0 0.752876,0.209129 z"
       id="path10" /><path
       style="fill:none;stroke:#e10000;stroke-width:1;stroke-dasharray:none;stroke-opacity:1"
       d="m 82.397394,153.21214 c 0.967003,-0.011 -16.099152,3.25328 -20.966678,4.04801 -0.692853,0.11312 -1.825767,0.1098 -2.521757,0.013 -3.219807,-0.44785 -11.159325,-1.72512 -12.427426,-2.70613 -6.478693,-5.01196 34.715998,-3.91922 35.915861,-1.35487 z"
       id="path33" /><path
       style="fill:none;stroke:#e10000;stroke-width:1;stroke-dasharray:none;stroke-opacity:1"
       d="m 49.506015,161.09353 c 8.124263,0.62284 10.449713,0.003 0.795917,-3.18367 l -0.636733,-0.31836 -10.346918,-2.8653 c -4.277756,1.20823 -3.740099,3.02462 -1.910199,4.61631 z"
       id="path34" /><path
       style="fill:none;stroke:#e10000;stroke-width:1;stroke-dasharray:none;stroke-opacity:1"
       d="m 69.626769,165.44401 c -14.709917,1.92418 -19.570576,10.58131 -21.851003,14.32204 -0.206431,0.33862 -0.07746,0.49672 0.294657,0.35719 0.306143,-0.1148 0.869613,-0.27486 1.254018,-0.3756 7.31384,-1.91682 23.390502,-10.77188 35.375469,-16.21961 9.798424,-4.95759 10.480454,-6.3325 -9.857187,0.75942 -1.403118,0.48928 -3.742718,0.96385 -5.215954,1.15656 z"
       id="path36" /><path
       style="fill:none;stroke:#e10000;stroke-width:1;stroke-dasharray:none;stroke-opacity:1"
       d="m 73.685468,172.35492 c -2.081683,1.51508 -16.771567,8.10744 -23.755887,10.13175 -2.099344,0.34186 -2.159626,1.19349 -0.575667,2.45618 2.054146,2.05415 4.484226,2.58993 6.075746,2.7427 0.923263,0.0886 2.42079,0.28434 3.344035,0.24033 3.196976,-0.1524 8.800313,-1.88853 11.565321,-2.72706 0.888032,-0.26931 2.382644,-0.57333 3.174021,-1.04005 4.494397,-2.65057 15.12248,-13.44975 17.718339,-17.32723 0.447637,-0.66865 0.815908,-2.00309 1.119949,-2.8255 0.824152,-2.22927 -0.386204,-2.54371 -4.696318,0.0593 z"
       id="path37" /><path
       style="fill:none;stroke:#e10000;stroke-width:1;stroke-dasharray:none;stroke-opacity:1"
       d="m 93.295862,172.64895 c 1.406238,-2.41103 2.110824,-4.19222 1.46737,-5.86349 -9.74432,9.81302 -12.881484,14.22019 -19.321713,21.32986 -7.716745,17.57763 -8.164674,25.76637 -9.518321,35.125 -0.133758,0.92475 0.495701,1.80084 1.416906,1.95841 l 6.581729,1.12583 c 1.54492,-0.68841 3.17716,-0.50362 4.450506,-3.90777 6.764215,-36.78349 8.680954,-35.13344 11.829753,-43.25184 0.724379,-1.86763 2.084356,-4.78533 3.09377,-6.516 z"
       id="path39" /><path
       style="fill:none;stroke:#e10000;stroke-width:1;stroke-dasharray:none;stroke-opacity:1"
       d="m 72.836343,187.24693 c -0.434194,0.2171 -8.03262,3.14792 -8.03262,3.14792 -9.056354,9.41413 -13.610278,17.23362 -16.130946,26.96563 -0.148446,0.57314 0.222033,0.98771 0.809988,1.04684 3.553805,0.35739 9.84332,3.59679 12.392729,5.29384 0.574909,0.3827 0.496934,0.17872 0.610411,-0.82139 0.787777,-6.94294 7.859262,-31.57924 10.350438,-35.63284 z"
       id="path40" /><path
       style="fill:none;stroke:#e10000;stroke-width:1;stroke-dasharray:none;stroke-opacity:1"
       d="m 60.787411,190.06921 -7.272779,0.65129 c -9.714271,5.24653 -15.487084,10.49307 -19.430261,15.7396 5.26412,1.13861 9.772563,3.2596 12.157482,8.14117 3.019575,-7.61928 8.058473,-15.7572 14.545558,-24.53206 z"
       id="path41" /><path
       style="fill:none;stroke:#e10000;stroke-width:1;stroke-dasharray:none;stroke-opacity:1"
       d="m 42.985383,182.90498 c -5.521015,2.4674 -14.984651,4.10478 -15.631049,7.59842 6.737406,5.21641 6.578651,8.22525 7.164231,10.8549 l 15.196852,-12.48313 c -1.902605,-1.85528 -1.702308,-2.29838 -6.730034,-5.97019 z"
       id="path43" /><path
       style="fill:none;stroke:#e10000;stroke-width:1;stroke-dasharray:none;stroke-opacity:1"
       d="m 48.685038,173.21573 -4.288519,6.43278 -14.545558,5.97019 c 2.759207,-1.92104 2.061049,-6.72287 1.08549,-12.37458 0,0 12.507678,-0.77731 17.054498,-1.19163 0.896928,-0.0817 1.203202,0.39957 0.694089,1.16324 z"
       id="path44" /><path
       style="fill:none;stroke:#e10000;stroke-width:1;stroke-dasharray:none;stroke-opacity:1"
       d="m 57.972159,164.86562 c -0.140987,-0.4873 -1.191612,-0.76469 -2.612196,-0.95671 h 0.217099 c -1.58259,0.50463 -15.385443,-1.32749 -19.41789,-2.17503 -0.6183,-0.12996 -1.307728,0.14919 -1.56661,0.72993 l -3.078815,6.90652 a 0.70286706,0.70286706 55.431312 0 0 0.680761,0.98798 l 20.451733,-1.1305 3.644219,-2.62723 c 0.5652,-0.40747 1.865102,-1.10105 1.681699,-1.73496 z"
       id="path45" /></g></svg>
