<svg xmlns="http://www.w3.org/2000/svg" xmlns:xlink="http://www.w3.org/1999/xlink" 
    width="500" height="500" viewBox="0 -2 100 104" id="flower0"
    class="chaoticumFlower">
    <defs>
    <pattern id="img1" patternUnits="userSpaceOnUse" width="150" height="200" >
        <image href="http://localhost/omk_creationsp8/files/large/cc1558ddcce5889f39f2c3925570e156ad763153.jpg" 
        x="-75" y="-100" width="300" height="400" />
    </pattern>
    </defs>    
    <g transform="translate(50, 50)">
        <path d="M0 0 C50 40 50 70 20 100 L0 85 L-20 100 C-50 70 -50 40 0 0" stroke="rgb(179, 80, 53)" stroke-width="4"
            fill="url(#img1)" fill-opacity="1" transform="rotate(0)scale(0.5)"></path>
        <path d="M0 0 C50 40 50 70 20 100 L0 85 L-20 100 C-50 70 -50 40 0 0" stroke="rgb(179, 80, 53)" stroke-width="4"
            fill="rgb(255, 114, 75)" fill-opacity="1" transform="rotate(60)scale(0.5)"></path>
        <path d="M0 0 C50 40 50 70 20 100 L0 85 L-20 100 C-50 70 -50 40 0 0" stroke="rgb(179, 80, 53)" stroke-width="4"
            fill="rgb(255, 114, 75)" fill-opacity="1" transform="rotate(120)scale(0.5)"></path>
        <path d="M0 0 C50 40 50 70 20 100 L0 85 L-20 100 C-50 70 -50 40 0 0" stroke="rgb(179, 80, 53)" stroke-width="4"
            fill="rgb(255, 114, 75)" fill-opacity="1" transform="rotate(180)scale(0.5)"></path>
        <path d="M0 0 C50 40 50 70 20 100 L0 85 L-20 100 C-50 70 -50 40 0 0" stroke="rgb(179, 80, 53)" stroke-width="4"
            fill="rgb(255, 114, 75)" fill-opacity="1" transform="rotate(240)scale(0.5)"></path>
        <path d="M0 0 C50 40 50 70 20 100 L0 85 L-20 100 C-50 70 -50 40 0 0" stroke="rgb(179, 80, 53)" stroke-width="4"
            fill="rgb(255, 114, 75)" fill-opacity="1" transform="rotate(300)scale(0.5)"></path>
    </g>
</svg>