<svg id="svgCartoHexach0" width="1920" height="882" style="transform: translateX(0px) translateY(0px);"><g><svg id="ch0svgE" viewBox="-400 -433.0127018922193 800 866.0254037844386"><defs><marker id="arrow" viewBox="0,0,20,20" refX="10" refY="10" markerWidth="20" markerHeight="20" orient="auto-start-reverse"><path d="M0,0L0,20L20,10" fill="#ffffff32"></path></marker><marker id="point" viewBox="0,0,20,20" refX="10" refY="10" markerWidth="20" markerHeight="20" orient="auto"><circle r="5" cx="10" cy="10" fill="#ffffff32"></circle></marker></defs><g class="gInit" id="ch0_hexa_0_-2_0_2" transform="translate(-300,-173.20508075688772)"><polygon points="100,0 50.000000000000014,-86.60254037844386 -49.99999999999998,-86.60254037844388 -100,-1.2246467991473532e-14 -50.00000000000004,86.60254037844383 50.000000000000014,86.60254037844386" fill="#102040" stroke="#a8acaf"></polygon><image href="https://octaviana.fr/files/square_thumbnails/40b854350eaf692041bb737d51b646a3.jpg" x="-50" y="-50" height="100" width="100"></image></g><g class="gInit" id="ch0_hexa_0_-2_1_1" transform="translate(-300,0)"><polygon points="100,0 50.000000000000014,-86.60254037844386 -49.99999999999998,-86.60254037844388 -100,-1.2246467991473532e-14 -50.00000000000004,86.60254037844383 50.000000000000014,86.60254037844386" fill="#102040" stroke="#a8acaf"></polygon><image href="https://octaviana.fr/files/square_thumbnails/e150c4f9ea88a7f0111db1198b5d1776.jpg" x="-50" y="-50" height="100" width="100"></image></g><g class="gInit" id="ch0_hexa_0_-2_2_0" transform="translate(-300,173.20508075688772)"><polygon points="100,0 50.000000000000014,-86.60254037844386 -49.99999999999998,-86.60254037844388 -100,-1.2246467991473532e-14 -50.00000000000004,86.60254037844383 50.000000000000014,86.60254037844386" fill="#102040" stroke="#a8acaf"></polygon><image href="https://octaviana.fr/files/square_thumbnails/1816670eb99bd43f87171e2c20e9d542.jpg" x="-50" y="-50" height="100" width="100"></image></g><g class="gInit" id="ch0_hexa_0_-1_-1_2" transform="translate(-150,-259.8076211353316)"><polygon points="100,0 50.000000000000014,-86.60254037844386 -49.99999999999998,-86.60254037844388 -100,-1.2246467991473532e-14 -50.00000000000004,86.60254037844383 50.000000000000014,86.60254037844386" fill="#102040" stroke="#a8acaf"></polygon><image href="http://localhost/omk_creationsp8/files/large/d17b02b3282e89e63488ecd6308bc8beadb5653b.jpg" x="-50" y="-50" height="100" width="100"></image></g><g class="gInit" id="ch0_hexa_0_-1_0_1" transform="translate(-150,-86.60254037844386)"><polygon points="100,0 50.000000000000014,-86.60254037844386 -49.99999999999998,-86.60254037844388 -100,-1.2246467991473532e-14 -50.00000000000004,86.60254037844383 50.000000000000014,86.60254037844386" fill="#102040" stroke="#a8acaf"></polygon><image href="https://octaviana.fr/files/square_thumbnails/4c29228921ea9c0f597097b97e0c02d0.jpg" x="-50" y="-50" height="100" width="100"></image></g><g class="gInit" id="ch0_hexa_0_-1_1_0" transform="translate(-150,86.60254037844386)"><polygon points="100,0 50.000000000000014,-86.60254037844386 -49.99999999999998,-86.60254037844388 -100,-1.2246467991473532e-14 -50.00000000000004,86.60254037844383 50.000000000000014,86.60254037844386" fill="#102040" stroke="#a8acaf"></polygon><image href="https://octaviana.fr/files/square_thumbnails/7021097b5da15451433274aab52e395e.jpg" x="-50" y="-50" height="100" width="100"></image></g><g class="gInit" id="ch0_hexa_0_-1_2_-1" transform="translate(-150,259.8076211353316)"><polygon points="100,0 50.000000000000014,-86.60254037844386 -49.99999999999998,-86.60254037844388 -100,-1.2246467991473532e-14 -50.00000000000004,86.60254037844383 50.000000000000014,86.60254037844386" fill="#102040" stroke="#a8acaf"></polygon><image href="http://localhost/omk_creationsp8/files/large/771bd63b893743ba9c93b76c5f2bfbf249ce2f3d.jpg" x="-50" y="-50" height="100" width="100"></image></g><g class="gInit" id="ch0_hexa_0_0_-2_2" transform="translate(0,-346.41016151377545)"><polygon points="100,0 50.000000000000014,-86.60254037844386 -49.99999999999998,-86.60254037844388 -100,-1.2246467991473532e-14 -50.00000000000004,86.60254037844383 50.000000000000014,86.60254037844386" fill="#102040" stroke="#a8acaf"></polygon><image href="https://octaviana.fr/files/square_thumbnails/bf1ff5673bcd4a3f4cc9c9f99bd85d92.jpg" x="-50" y="-50" height="100" width="100"></image></g><g class="gInit" id="ch0_hexa_0_0_-1_1" transform="translate(0,-173.20508075688772)"><polygon points="100,0 50.000000000000014,-86.60254037844386 -49.99999999999998,-86.60254037844388 -100,-1.2246467991473532e-14 -50.00000000000004,86.60254037844383 50.000000000000014,86.60254037844386" fill="#102040" stroke="#a8acaf"></polygon><image href="https://octaviana.fr/files/square_thumbnails/f3ac4b0ed9ce3593593c0ed5626900c7.jpg" x="-50" y="-50" height="100" width="100"></image></g><g class="gOccupe" id="ch0_hexa_0_0_0_0" transform="translate(0,0)"><polygon points="100,0 50.000000000000014,-86.60254037844386 -49.99999999999998,-86.60254037844388 -100,-1.2246467991473532e-14 -50.00000000000004,86.60254037844383 50.000000000000014,86.60254037844386" fill="#102040" stroke="#a8acaf"></polygon><g class="gTitre" transform="translate(0,0)"><text id="chText_ch0_hexa_0_0_0_0" text-anchor="middle" alignment-baseline="middle" fill="white" font-size="Infinityem"></text></g></g><g class="gInit" id="ch0_hexa_0_0_1_-1" transform="translate(0,173.20508075688772)"><polygon points="100,0 50.000000000000014,-86.60254037844386 -49.99999999999998,-86.60254037844388 -100,-1.2246467991473532e-14 -50.00000000000004,86.60254037844383 50.000000000000014,86.60254037844386" fill="#102040" stroke="#a8acaf"></polygon><image href="http://localhost/omk_creationsp8/files/large/7e40714e70f43d13296cf1c6240f0029971fa5b9.jpg" x="-50" y="-50" height="100" width="100"></image></g><g class="gInit" id="ch0_hexa_0_0_2_-2" transform="translate(0,346.41016151377545)"><polygon points="100,0 50.000000000000014,-86.60254037844386 -49.99999999999998,-86.60254037844388 -100,-1.2246467991473532e-14 -50.00000000000004,86.60254037844383 50.000000000000014,86.60254037844386" fill="#102040" stroke="#a8acaf"></polygon><image href="http://localhost/omk_creationsp8/files/large/a346ffa5a1310fd0ee7b9b46e3f83133158b17da.jpg" x="-50" y="-50" height="100" width="100"></image></g><g class="gInit" id="ch0_hexa_0_1_-2_1" transform="translate(150,-259.8076211353316)"><polygon points="100,0 50.000000000000014,-86.60254037844386 -49.99999999999998,-86.60254037844388 -100,-1.2246467991473532e-14 -50.00000000000004,86.60254037844383 50.000000000000014,86.60254037844386" fill="#102040" stroke="#a8acaf"></polygon><image href="https://octaviana.fr/files/square_thumbnails/b6be4bb763482078c449bbbe36974bba.jpg" x="-50" y="-50" height="100" width="100"></image></g><g class="gInit" id="ch0_hexa_0_1_-1_0" transform="translate(150,-86.60254037844386)"><polygon points="100,0 50.000000000000014,-86.60254037844386 -49.99999999999998,-86.60254037844388 -100,-1.2246467991473532e-14 -50.00000000000004,86.60254037844383 50.000000000000014,86.60254037844386" fill="#102040" stroke="#a8acaf"></polygon><image href="https://octaviana.fr/files/square_thumbnails/7e5d2ae653b39e8deb915d0b6c56a863.jpg" x="-50" y="-50" height="100" width="100"></image></g><g class="gInit" id="ch0_hexa_0_1_0_-1" transform="translate(150,86.60254037844386)"><polygon points="100,0 50.000000000000014,-86.60254037844386 -49.99999999999998,-86.60254037844388 -100,-1.2246467991473532e-14 -50.00000000000004,86.60254037844383 50.000000000000014,86.60254037844386" fill="#102040" stroke="#a8acaf"></polygon><image href="http://localhost/omk_creationsp8/files/large/771bd63b893743ba9c93b76c5f2bfbf249ce2f3d.jpg" x="-50" y="-50" height="100" width="100"></image></g><g class="gInit" id="ch0_hexa_0_1_1_-2" transform="translate(150,259.8076211353316)"><polygon points="100,0 50.000000000000014,-86.60254037844386 -49.99999999999998,-86.60254037844388 -100,-1.2246467991473532e-14 -50.00000000000004,86.60254037844383 50.000000000000014,86.60254037844386" fill="#102040" stroke="#a8acaf"></polygon><image href="https://octaviana.fr/files/square_thumbnails/f3ac4b0ed9ce3593593c0ed5626900c7.jpg" x="-50" y="-50" height="100" width="100"></image></g><g class="gInit" id="ch0_hexa_0_2_-2_0" transform="translate(300,-173.20508075688772)"><polygon points="100,0 50.000000000000014,-86.60254037844386 -49.99999999999998,-86.60254037844388 -100,-1.2246467991473532e-14 -50.00000000000004,86.60254037844383 50.000000000000014,86.60254037844386" fill="#102040" stroke="#a8acaf"></polygon><image href="http://localhost/omk_creationsp8/files/large/73d62a1de63b42b71e33a946ea63f443fa955a10.jpg" x="-50" y="-50" height="100" width="100"></image></g><g class="gInit" id="ch0_hexa_0_2_-1_-1" transform="translate(300,0)"><polygon points="100,0 50.000000000000014,-86.60254037844386 -49.99999999999998,-86.60254037844388 -100,-1.2246467991473532e-14 -50.00000000000004,86.60254037844383 50.000000000000014,86.60254037844386" fill="#102040" stroke="#a8acaf"></polygon><image href="https://octaviana.fr/files/square_thumbnails/fc2abf6718ad9f630c46a924ca8ab8e8.jpg" x="-50" y="-50" height="100" width="100"></image></g><g class="gInit" id="ch0_hexa_0_2_0_-2" transform="translate(300,173.20508075688772)"><polygon points="100,0 50.000000000000014,-86.60254037844386 -49.99999999999998,-86.60254037844388 -100,-1.2246467991473532e-14 -50.00000000000004,86.60254037844383 50.000000000000014,86.60254037844386" fill="#102040" stroke="#a8acaf"></polygon><image href="https://octaviana.fr/files/square_thumbnails/421feefc150f5681d880bae041992b7d.jpg" x="-50" y="-50" height="100" width="100"></image></g></svg></g><path id="motionPath" fill="none" stroke="currentColor" stroke-width="1" d="m -401.09785,4.1818173
c 0,-139.0791773 60.78177,-251.8251173 135.75989,-251.8251173 74.97812,0 135.75989,112.74594 135.75989,251.8251173 0,139.0791827 60.781766,226.6426127 135.7598864,226.6426127 74.9781296,0 108.6079336,-125.91257 108.6079336,-226.6426127 0,-100.7300523 -40.728004,-201.4600973 -108.6079336,-201.4600973 -67.8799504,0 -108.6079064,100.730045 -108.6079064,201.4600973 0,100.7300427 33.629786,226.6426127 108.6079064,226.6426127
C 94.425746,237.12006 141.94175,142.68564 141.94175,4.1818173
c 0,-139.0791773 60.7817,-251.8251173 135.7598,-251.8251173 74.9782,0 135.7599,112.74594 135.7599,251.8251173 0,139.0791827 -60.7817,251.8251227 -135.7599,251.8251227
h -543.03951
c -74.97812,0 -135.75989,-112.74594 -135.75989,-251.8251227
z"></path></svg>