<svg id="svgCartoHexach0" width="1920" height="882"><g><svg id="ch0svgE" viewBox="-400 -433.0127018922193 800 866.0254037844386"><defs><marker id="arrow" viewBox="0,0,20,20" refX="10" refY="10" markerWidth="20" markerHeight="20" orient="auto-start-reverse"><path d="M0,0L0,20L20,10" fill="#ffffff32"></path></marker><marker id="point" viewBox="0,0,20,20" refX="10" refY="10" markerWidth="20" markerHeight="20" orient="auto"><circle r="5" cx="10" cy="10" fill="#ffffff32"></circle></marker></defs><g class="gInit" id="ch0_hexa_0_-2_0_2" transform="translate(-300,-173.20508075688772)"><polygon points="100,0 50.000000000000014,-86.60254037844386 -49.99999999999998,-86.60254037844388 -100,-1.2246467991473532e-14 -50.00000000000004,86.60254037844383 50.000000000000014,86.60254037844386" fill="#102040" stroke="#a8acaf"></polygon><image href="https://octaviana.fr/files/square_thumbnails/40b854350eaf692041bb737d51b646a3.jpg" x="-50" y="-50" height="100" width="100"></image></g><g class="gInit" id="ch0_hexa_0_-2_1_1" transform="translate(-300,0)"><polygon points="100,0 50.000000000000014,-86.60254037844386 -49.99999999999998,-86.60254037844388 -100,-1.2246467991473532e-14 -50.00000000000004,86.60254037844383 50.000000000000014,86.60254037844386" fill="#102040" stroke="#a8acaf"></polygon><image href="http://localhost/omk_creationsp8/files/large/7e148d90ce05b7f49a9d3c3ec828a6c9719fb48f.jpg" x="-50" y="-50" height="100" width="100"></image></g><g class="gInit" id="ch0_hexa_0_-2_2_0" transform="translate(-300,173.20508075688772)"><polygon points="100,0 50.000000000000014,-86.60254037844386 -49.99999999999998,-86.60254037844388 -100,-1.2246467991473532e-14 -50.00000000000004,86.60254037844383 50.000000000000014,86.60254037844386" fill="#102040" stroke="#a8acaf"></polygon><image href="http://localhost/omk_creationsp8/files/large/9947aaf8d7cef4b4799f4de88a1a8083c6780e10.jpg" x="-50" y="-50" height="100" width="100"></image></g><g class="gInit" id="ch0_hexa_0_-1_-1_2" transform="translate(-150,-259.8076211353316)"><polygon points="100,0 50.000000000000014,-86.60254037844386 -49.99999999999998,-86.60254037844388 -100,-1.2246467991473532e-14 -50.00000000000004,86.60254037844383 50.000000000000014,86.60254037844386" fill="#102040" stroke="#a8acaf"></polygon><image href="http://localhost/omk_creationsp8/files/large/3206eb1ca2df2a87c26b7c661dec46bfcba2f61c.jpg" x="-50" y="-50" height="100" width="100"></image></g><g class="gInit" id="ch0_hexa_0_-1_0_1" transform="translate(-150,-86.60254037844386)"><polygon points="100,0 50.000000000000014,-86.60254037844386 -49.99999999999998,-86.60254037844388 -100,-1.2246467991473532e-14 -50.00000000000004,86.60254037844383 50.000000000000014,86.60254037844386" fill="#102040" stroke="#a8acaf"></polygon><image href="https://octaviana.fr/files/square_thumbnails/f3ac4b0ed9ce3593593c0ed5626900c7.jpg" x="-50" y="-50" height="100" width="100"></image></g><g class="gInit" id="ch0_hexa_0_-1_1_0" transform="translate(-150,86.60254037844386)"><polygon points="100,0 50.000000000000014,-86.60254037844386 -49.99999999999998,-86.60254037844388 -100,-1.2246467991473532e-14 -50.00000000000004,86.60254037844383 50.000000000000014,86.60254037844386" fill="#102040" stroke="#a8acaf"></polygon><image href="http://localhost/omk_creationsp8/files/large/2f25074b33a28a679a567498bc8e1056ec1bf6b4.jpg" x="-50" y="-50" height="100" width="100"></image></g><g class="gInit" id="ch0_hexa_0_-1_2_-1" transform="translate(-150,259.8076211353316)"><polygon points="100,0 50.000000000000014,-86.60254037844386 -49.99999999999998,-86.60254037844388 -100,-1.2246467991473532e-14 -50.00000000000004,86.60254037844383 50.000000000000014,86.60254037844386" fill="#102040" stroke="#a8acaf"></polygon><image href="https://octaviana.fr/files/square_thumbnails/9c9616df3fbf651392adfe4e468dc8c8.jpg" x="-50" y="-50" height="100" width="100"></image></g><g class="gInit" id="ch0_hexa_0_0_-2_2" transform="translate(0,-346.41016151377545)"><polygon points="100,0 50.000000000000014,-86.60254037844386 -49.99999999999998,-86.60254037844388 -100,-1.2246467991473532e-14 -50.00000000000004,86.60254037844383 50.000000000000014,86.60254037844386" fill="#102040" stroke="#a8acaf"></polygon><image href="https://octaviana.fr/files/square_thumbnails/72f8ed5ddcfc818ae65d31c425cbe7d3.jpg" x="-50" y="-50" height="100" width="100"></image></g><g class="gInit" id="ch0_hexa_0_0_-1_1" transform="translate(0,-173.20508075688772)"><polygon points="100,0 50.000000000000014,-86.60254037844386 -49.99999999999998,-86.60254037844388 -100,-1.2246467991473532e-14 -50.00000000000004,86.60254037844383 50.000000000000014,86.60254037844386" fill="#102040" stroke="#a8acaf"></polygon><image href="http://localhost/omk_creationsp8/files/large/9947aaf8d7cef4b4799f4de88a1a8083c6780e10.jpg" x="-50" y="-50" height="100" width="100"></image></g><g class="gOccupe" id="ch0_hexa_0_0_0_0" transform="translate(0,0)"><polygon points="100,0 50.000000000000014,-86.60254037844386 -49.99999999999998,-86.60254037844388 -100,-1.2246467991473532e-14 -50.00000000000004,86.60254037844383 50.000000000000014,86.60254037844386" fill="#102040" stroke="#a8acaf"></polygon><g class="gTitre" transform="translate(0,0)"><text id="chText_ch0_hexa_0_0_0_0" text-anchor="middle" alignment-baseline="middle" fill="white" font-size="Infinityem"></text></g></g><g class="gInit" id="ch0_hexa_0_0_1_-1" transform="translate(0,173.20508075688772)"><polygon points="100,0 50.000000000000014,-86.60254037844386 -49.99999999999998,-86.60254037844388 -100,-1.2246467991473532e-14 -50.00000000000004,86.60254037844383 50.000000000000014,86.60254037844386" fill="#102040" stroke="#a8acaf"></polygon><image href="https://octaviana.fr/files/square_thumbnails/0820ade9e503de31309a1f68e70d96af.jpg" x="-50" y="-50" height="100" width="100"></image></g><g class="gInit" id="ch0_hexa_0_0_2_-2" transform="translate(0,346.41016151377545)"><polygon points="100,0 50.000000000000014,-86.60254037844386 -49.99999999999998,-86.60254037844388 -100,-1.2246467991473532e-14 -50.00000000000004,86.60254037844383 50.000000000000014,86.60254037844386" fill="#102040" stroke="#a8acaf"></polygon><image href="https://octaviana.fr/files/square_thumbnails/4c29228921ea9c0f597097b97e0c02d0.jpg" x="-50" y="-50" height="100" width="100"></image></g><g class="gInit" id="ch0_hexa_0_1_-2_1" transform="translate(150,-259.8076211353316)"><polygon points="100,0 50.000000000000014,-86.60254037844386 -49.99999999999998,-86.60254037844388 -100,-1.2246467991473532e-14 -50.00000000000004,86.60254037844383 50.000000000000014,86.60254037844386" fill="#102040" stroke="#a8acaf"></polygon><image href="http://localhost/omk_creationsp8/files/large/3c74b225932dbb0f255255c0b27106e2c7b09143.jpg" x="-50" y="-50" height="100" width="100"></image></g><g class="gInit" id="ch0_hexa_0_1_-1_0" transform="translate(150,-86.60254037844386)"><polygon points="100,0 50.000000000000014,-86.60254037844386 -49.99999999999998,-86.60254037844388 -100,-1.2246467991473532e-14 -50.00000000000004,86.60254037844383 50.000000000000014,86.60254037844386" fill="#102040" stroke="#a8acaf"></polygon><image href="http://localhost/omk_creationsp8/files/large/3c74b225932dbb0f255255c0b27106e2c7b09143.jpg" x="-50" y="-50" height="100" width="100"></image></g><g class="gInit" id="ch0_hexa_0_1_0_-1" transform="translate(150,86.60254037844386)"><polygon points="100,0 50.000000000000014,-86.60254037844386 -49.99999999999998,-86.60254037844388 -100,-1.2246467991473532e-14 -50.00000000000004,86.60254037844383 50.000000000000014,86.60254037844386" fill="#102040" stroke="#a8acaf"></polygon><image href="https://octaviana.fr/files/square_thumbnails/fc2abf6718ad9f630c46a924ca8ab8e8.jpg" x="-50" y="-50" height="100" width="100"></image></g><g class="gInit" id="ch0_hexa_0_1_1_-2" transform="translate(150,259.8076211353316)"><polygon points="100,0 50.000000000000014,-86.60254037844386 -49.99999999999998,-86.60254037844388 -100,-1.2246467991473532e-14 -50.00000000000004,86.60254037844383 50.000000000000014,86.60254037844386" fill="#102040" stroke="#a8acaf"></polygon><image href="http://localhost/omk_creationsp8/files/large/a56362e1be45554992211d1fdd04ad75f7b204e5.jpg" x="-50" y="-50" height="100" width="100"></image></g><g class="gInit" id="ch0_hexa_0_2_-2_0" transform="translate(300,-173.20508075688772)"><polygon points="100,0 50.000000000000014,-86.60254037844386 -49.99999999999998,-86.60254037844388 -100,-1.2246467991473532e-14 -50.00000000000004,86.60254037844383 50.000000000000014,86.60254037844386" fill="#102040" stroke="#a8acaf"></polygon><image href="https://octaviana.fr/files/square_thumbnails/6ff1ed6c3cd07bfd1584a8be18250801.jpg" x="-50" y="-50" height="100" width="100"></image></g><g class="gInit" id="ch0_hexa_0_2_-1_-1" transform="translate(300,0)"><polygon points="100,0 50.000000000000014,-86.60254037844386 -49.99999999999998,-86.60254037844388 -100,-1.2246467991473532e-14 -50.00000000000004,86.60254037844383 50.000000000000014,86.60254037844386" fill="#102040" stroke="#a8acaf"></polygon><image href="http://localhost/omk_creationsp8/files/large/5cae8f33d6bc7dde4ac9b1d3daedd37b0a352cc3.jpg" x="-50" y="-50" height="100" width="100"></image></g><g class="gInit" id="ch0_hexa_0_2_0_-2" transform="translate(300,173.20508075688772)"><polygon points="100,0 50.000000000000014,-86.60254037844386 -49.99999999999998,-86.60254037844388 -100,-1.2246467991473532e-14 -50.00000000000004,86.60254037844383 50.000000000000014,86.60254037844386" fill="#102040" stroke="#a8acaf"></polygon><image href="https://octaviana.fr/files/square_thumbnails/140fc6517b01f10ac88351bf43230d2c.jpg" x="-50" y="-50" height="100" width="100"></image></g></svg></g><path id="motionPath" fill="none" stroke="currentColor" stroke-width="1" d="M8,56 C8,33.90861 25.90861,16 48,16 C70.09139,16 88,33.90861 88,56 C88,78.09139 105.90861,92 128,92 C150.09139,92 160,72 160,56 C160,40 148,24 128,24 C108,24 96,40 96,56 C96,72 105.90861,92 128,92 C154,93 168,78 168,56 C168,33.90861 185.90861,16 208,16 C230.09139,16 248,33.90861 248,56 C248,78.09139 230.09139,96 208,96 L48,96 C25.90861,96 8,78.09139 8,56 Z"></path></svg>