<svg id="svgCartoHexach0" width="1920" height="882"><g><svg id="ch0svgE" viewBox="-400 -433.0127018922193 800 866.0254037844386"><defs><marker id="arrow" viewBox="0,0,20,20" refX="10" refY="10" markerWidth="20" markerHeight="20" orient="auto-start-reverse"><path d="M0,0L0,20L20,10" fill="#ffffff32"></path></marker><marker id="point" viewBox="0,0,20,20" refX="10" refY="10" markerWidth="20" markerHeight="20" orient="auto"><circle r="5" cx="10" cy="10" fill="#ffffff32"></circle></marker></defs><g class="gInit" id="ch0_hexa_0_-2_0_2" transform="translate(-300,-173.20508075688772)"><polygon points="100,0 50.000000000000014,-86.60254037844386 -49.99999999999998,-86.60254037844388 -100,-1.2246467991473532e-14 -50.00000000000004,86.60254037844383 50.000000000000014,86.60254037844386" fill="#102040" stroke="#a8acaf"></polygon><image href="https://octaviana.fr/files/square_thumbnails/0820ade9e503de31309a1f68e70d96af.jpg" x="-50" y="-50" height="100" width="100"></image></g><g class="gInit" id="ch0_hexa_0_-2_1_1" transform="translate(-300,0)"><polygon points="100,0 50.000000000000014,-86.60254037844386 -49.99999999999998,-86.60254037844388 -100,-1.2246467991473532e-14 -50.00000000000004,86.60254037844383 50.000000000000014,86.60254037844386" fill="#102040" stroke="#a8acaf"></polygon><image href="http://localhost/omk_creationsp8/files/large/cb206d7cc4ba9de57b3112597eaec584db914553.jpg" x="-50" y="-50" height="100" width="100"></image></g><g class="gInit" id="ch0_hexa_0_-2_2_0" transform="translate(-300,173.20508075688772)"><polygon points="100,0 50.000000000000014,-86.60254037844386 -49.99999999999998,-86.60254037844388 -100,-1.2246467991473532e-14 -50.00000000000004,86.60254037844383 50.000000000000014,86.60254037844386" fill="#102040" stroke="#a8acaf"></polygon><image href="https://octaviana.fr/files/square_thumbnails/99c70f8250da747f5effb15d086284a4.jpg" x="-50" y="-50" height="100" width="100"></image></g><g class="gInit" id="ch0_hexa_0_-1_-1_2" transform="translate(-150,-259.8076211353316)"><polygon points="100,0 50.000000000000014,-86.60254037844386 -49.99999999999998,-86.60254037844388 -100,-1.2246467991473532e-14 -50.00000000000004,86.60254037844383 50.000000000000014,86.60254037844386" fill="#102040" stroke="#a8acaf"></polygon><image href="http://localhost/omk_creationsp8/files/large/7e40714e70f43d13296cf1c6240f0029971fa5b9.jpg" x="-50" y="-50" height="100" width="100"></image></g><g class="gInit" id="ch0_hexa_0_-1_0_1" transform="translate(-150,-86.60254037844386)"><polygon points="100,0 50.000000000000014,-86.60254037844386 -49.99999999999998,-86.60254037844388 -100,-1.2246467991473532e-14 -50.00000000000004,86.60254037844383 50.000000000000014,86.60254037844386" fill="#102040" stroke="#a8acaf"></polygon><image href="http://localhost/omk_creationsp8/files/large/310666bb69e9a39635801a684a6500a97d035477.jpg" x="-50" y="-50" height="100" width="100"></image></g><g class="gInit" id="ch0_hexa_0_-1_1_0" transform="translate(-150,86.60254037844386)"><polygon points="100,0 50.000000000000014,-86.60254037844386 -49.99999999999998,-86.60254037844388 -100,-1.2246467991473532e-14 -50.00000000000004,86.60254037844383 50.000000000000014,86.60254037844386" fill="#102040" stroke="#a8acaf"></polygon><image href="https://octaviana.fr/files/square_thumbnails/3ace5ed1c8adb17ffbee0b38229b1a98.jpg" x="-50" y="-50" height="100" width="100"></image></g><g class="gInit" id="ch0_hexa_0_-1_2_-1" transform="translate(-150,259.8076211353316)"><polygon points="100,0 50.000000000000014,-86.60254037844386 -49.99999999999998,-86.60254037844388 -100,-1.2246467991473532e-14 -50.00000000000004,86.60254037844383 50.000000000000014,86.60254037844386" fill="#102040" stroke="#a8acaf"></polygon><image href="https://octaviana.fr/files/square_thumbnails/0ea548062261f8f5b3476bcfbdcc34e8.jpg" x="-50" y="-50" height="100" width="100"></image></g><g class="gInit" id="ch0_hexa_0_0_-2_2" transform="translate(0,-346.41016151377545)"><polygon points="100,0 50.000000000000014,-86.60254037844386 -49.99999999999998,-86.60254037844388 -100,-1.2246467991473532e-14 -50.00000000000004,86.60254037844383 50.000000000000014,86.60254037844386" fill="#102040" stroke="#a8acaf"></polygon><image href="http://localhost/omk_creationsp8/files/large/5cae8f33d6bc7dde4ac9b1d3daedd37b0a352cc3.jpg" x="-50" y="-50" height="100" width="100"></image></g><g class="gInit" id="ch0_hexa_0_0_-1_1" transform="translate(0,-173.20508075688772)"><polygon points="100,0 50.000000000000014,-86.60254037844386 -49.99999999999998,-86.60254037844388 -100,-1.2246467991473532e-14 -50.00000000000004,86.60254037844383 50.000000000000014,86.60254037844386" fill="#102040" stroke="#a8acaf"></polygon><image href="https://octaviana.fr/files/square_thumbnails/6c28172ef5c470d33f49508577c15eb8.jpg" x="-50" y="-50" height="100" width="100"></image></g><g class="gOccupe" id="ch0_hexa_0_0_0_0" transform="translate(0,0)"><polygon points="100,0 50.000000000000014,-86.60254037844386 -49.99999999999998,-86.60254037844388 -100,-1.2246467991473532e-14 -50.00000000000004,86.60254037844383 50.000000000000014,86.60254037844386" fill="#102040" stroke="#a8acaf"></polygon><g class="gTitre" transform="translate(0,0)"><text id="chText_ch0_hexa_0_0_0_0" text-anchor="middle" alignment-baseline="middle" fill="white" font-size="Infinityem"></text></g></g><g class="gInit" id="ch0_hexa_0_0_1_-1" transform="translate(0,173.20508075688772)"><polygon points="100,0 50.000000000000014,-86.60254037844386 -49.99999999999998,-86.60254037844388 -100,-1.2246467991473532e-14 -50.00000000000004,86.60254037844383 50.000000000000014,86.60254037844386" fill="#102040" stroke="#a8acaf"></polygon><image href="http://localhost/omk_creationsp8/files/large/a1c60dadf0b48f28fe54d3d2ffb6551d144afe08.jpg" x="-50" y="-50" height="100" width="100"></image></g><g class="gInit" id="ch0_hexa_0_0_2_-2" transform="translate(0,346.41016151377545)"><polygon points="100,0 50.000000000000014,-86.60254037844386 -49.99999999999998,-86.60254037844388 -100,-1.2246467991473532e-14 -50.00000000000004,86.60254037844383 50.000000000000014,86.60254037844386" fill="#102040" stroke="#a8acaf"></polygon><image href="http://localhost/omk_creationsp8/files/large/169a0667608af51caaa6eb6c061f5fb4af761b55.jpg" x="-50" y="-50" height="100" width="100"></image></g><g class="gInit" id="ch0_hexa_0_1_-2_1" transform="translate(150,-259.8076211353316)"><polygon points="100,0 50.000000000000014,-86.60254037844386 -49.99999999999998,-86.60254037844388 -100,-1.2246467991473532e-14 -50.00000000000004,86.60254037844383 50.000000000000014,86.60254037844386" fill="#102040" stroke="#a8acaf"></polygon><image href="http://localhost/omk_creationsp8/files/large/7e40714e70f43d13296cf1c6240f0029971fa5b9.jpg" x="-50" y="-50" height="100" width="100"></image></g><g class="gInit" id="ch0_hexa_0_1_-1_0" transform="translate(150,-86.60254037844386)"><polygon points="100,0 50.000000000000014,-86.60254037844386 -49.99999999999998,-86.60254037844388 -100,-1.2246467991473532e-14 -50.00000000000004,86.60254037844383 50.000000000000014,86.60254037844386" fill="#102040" stroke="#a8acaf"></polygon><image href="http://localhost/omk_creationsp8/files/large/06cec6225022e118b4f2ee1c677d1ab4a463be6e.jpg" x="-50" y="-50" height="100" width="100"></image></g><g class="gInit" id="ch0_hexa_0_1_0_-1" transform="translate(150,86.60254037844386)"><polygon points="100,0 50.000000000000014,-86.60254037844386 -49.99999999999998,-86.60254037844388 -100,-1.2246467991473532e-14 -50.00000000000004,86.60254037844383 50.000000000000014,86.60254037844386" fill="#102040" stroke="#a8acaf"></polygon><image href="https://octaviana.fr/files/square_thumbnails/f3ac4b0ed9ce3593593c0ed5626900c7.jpg" x="-50" y="-50" height="100" width="100"></image></g><g class="gInit" id="ch0_hexa_0_1_1_-2" transform="translate(150,259.8076211353316)"><polygon points="100,0 50.000000000000014,-86.60254037844386 -49.99999999999998,-86.60254037844388 -100,-1.2246467991473532e-14 -50.00000000000004,86.60254037844383 50.000000000000014,86.60254037844386" fill="#102040" stroke="#a8acaf"></polygon><image href="http://localhost/omk_creationsp8/files/large/73d62a1de63b42b71e33a946ea63f443fa955a10.jpg" x="-50" y="-50" height="100" width="100"></image></g><g class="gInit" id="ch0_hexa_0_2_-2_0" transform="translate(300,-173.20508075688772)"><polygon points="100,0 50.000000000000014,-86.60254037844386 -49.99999999999998,-86.60254037844388 -100,-1.2246467991473532e-14 -50.00000000000004,86.60254037844383 50.000000000000014,86.60254037844386" fill="#102040" stroke="#a8acaf"></polygon><image href="https://octaviana.fr/files/square_thumbnails/d7f8a01895fdbcc1b75ddb6762444c7a.jpg" x="-50" y="-50" height="100" width="100"></image></g><g class="gInit" id="ch0_hexa_0_2_-1_-1" transform="translate(300,0)"><polygon points="100,0 50.000000000000014,-86.60254037844386 -49.99999999999998,-86.60254037844388 -100,-1.2246467991473532e-14 -50.00000000000004,86.60254037844383 50.000000000000014,86.60254037844386" fill="#102040" stroke="#a8acaf"></polygon><image href="http://localhost/omk_creationsp8/files/large/a56362e1be45554992211d1fdd04ad75f7b204e5.jpg" x="-50" y="-50" height="100" width="100"></image></g><g class="gInit" id="ch0_hexa_0_2_0_-2" transform="translate(300,173.20508075688772)"><polygon points="100,0 50.000000000000014,-86.60254037844386 -49.99999999999998,-86.60254037844388 -100,-1.2246467991473532e-14 -50.00000000000004,86.60254037844383 50.000000000000014,86.60254037844386" fill="#102040" stroke="#a8acaf"></polygon><image href="http://localhost/omk_creationsp8/files/large/5a7faa5fed4e5c2210a1648dde69882e0882ca48.jpg" x="-50" y="-50" height="100" width="100"></image></g></svg></g></svg>